<mxfile host="Electron" modified="2024-08-26T02:50:50.676Z" agent="Mozilla/5.0 (Windows NT 10.0; Win64; x64) AppleWebKit/537.36 (KHTML, like Gecko) draw.io/22.0.0 Chrome/114.0.5735.289 Electron/25.8.3 Safari/537.36" etag="pHKIhiJxvGvB0uml9pvf" version="22.0.0" type="device">
  <diagram name="Página-1" id="KThQYosn03aPMls6rOTR">
    <mxGraphModel dx="1434" dy="836" grid="1" gridSize="10" guides="1" tooltips="1" connect="1" arrows="1" fold="1" page="1" pageScale="1" pageWidth="827" pageHeight="1169" math="0" shadow="0">
      <root>
        <mxCell id="0" />
        <mxCell id="1" parent="0" />
        <mxCell id="cxCpXe8AjFaBqoEo-I-R-6" value="" style="rounded=0;whiteSpace=wrap;html=1;dashed=1;fillColor=#fff2cc;strokeColor=#d6b656;" vertex="1" parent="1">
          <mxGeometry x="160" y="340" width="440" height="300" as="geometry" />
        </mxCell>
        <mxCell id="cxCpXe8AjFaBqoEo-I-R-33" value="" style="whiteSpace=wrap;html=1;aspect=fixed;" vertex="1" parent="1">
          <mxGeometry x="415" y="440" width="170" height="170" as="geometry" />
        </mxCell>
        <mxCell id="cxCpXe8AjFaBqoEo-I-R-32" value="" style="whiteSpace=wrap;html=1;aspect=fixed;" vertex="1" parent="1">
          <mxGeometry x="175" y="440" width="170" height="170" as="geometry" />
        </mxCell>
        <mxCell id="cxCpXe8AjFaBqoEo-I-R-26" value="" style="rounded=0;whiteSpace=wrap;html=1;fillColor=#dae8fc;strokeColor=#6c8ebf;" vertex="1" parent="1">
          <mxGeometry x="160" y="720" width="440" height="250" as="geometry" />
        </mxCell>
        <mxCell id="cxCpXe8AjFaBqoEo-I-R-31" style="edgeStyle=orthogonalEdgeStyle;rounded=0;orthogonalLoop=1;jettySize=auto;html=1;entryX=0.5;entryY=0;entryDx=0;entryDy=0;" edge="1" parent="1" source="cxCpXe8AjFaBqoEo-I-R-1" target="cxCpXe8AjFaBqoEo-I-R-3">
          <mxGeometry relative="1" as="geometry" />
        </mxCell>
        <mxCell id="cxCpXe8AjFaBqoEo-I-R-1" value="Internet" style="ellipse;shape=cloud;whiteSpace=wrap;html=1;" vertex="1" parent="1">
          <mxGeometry x="320" y="130" width="120" height="80" as="geometry" />
        </mxCell>
        <mxCell id="cxCpXe8AjFaBqoEo-I-R-5" style="edgeStyle=orthogonalEdgeStyle;rounded=0;orthogonalLoop=1;jettySize=auto;html=1;entryX=0.5;entryY=0;entryDx=0;entryDy=0;" edge="1" parent="1" source="cxCpXe8AjFaBqoEo-I-R-3" target="cxCpXe8AjFaBqoEo-I-R-4">
          <mxGeometry relative="1" as="geometry" />
        </mxCell>
        <mxCell id="cxCpXe8AjFaBqoEo-I-R-3" value="API Gateway" style="rounded=0;whiteSpace=wrap;html=1;fillColor=#e1d5e7;strokeColor=#9673a6;" vertex="1" parent="1">
          <mxGeometry x="320" y="260" width="120" height="60" as="geometry" />
        </mxCell>
        <mxCell id="cxCpXe8AjFaBqoEo-I-R-29" style="edgeStyle=orthogonalEdgeStyle;rounded=0;orthogonalLoop=1;jettySize=auto;html=1;entryX=0.5;entryY=0;entryDx=0;entryDy=0;" edge="1" parent="1" source="cxCpXe8AjFaBqoEo-I-R-4" target="cxCpXe8AjFaBqoEo-I-R-32">
          <mxGeometry relative="1" as="geometry">
            <Array as="points">
              <mxPoint x="260" y="390" />
            </Array>
          </mxGeometry>
        </mxCell>
        <mxCell id="cxCpXe8AjFaBqoEo-I-R-36" style="edgeStyle=orthogonalEdgeStyle;rounded=0;orthogonalLoop=1;jettySize=auto;html=1;entryX=0.5;entryY=0;entryDx=0;entryDy=0;" edge="1" parent="1" source="cxCpXe8AjFaBqoEo-I-R-4" target="cxCpXe8AjFaBqoEo-I-R-33">
          <mxGeometry relative="1" as="geometry">
            <Array as="points">
              <mxPoint x="500" y="390" />
            </Array>
          </mxGeometry>
        </mxCell>
        <mxCell id="cxCpXe8AjFaBqoEo-I-R-4" value="Balanceador&lt;br&gt;interno" style="rounded=0;whiteSpace=wrap;html=1;fillColor=#dae8fc;strokeColor=#6c8ebf;" vertex="1" parent="1">
          <mxGeometry x="320" y="360" width="120" height="60" as="geometry" />
        </mxCell>
        <mxCell id="cxCpXe8AjFaBqoEo-I-R-11" style="edgeStyle=orthogonalEdgeStyle;rounded=0;orthogonalLoop=1;jettySize=auto;html=1;exitX=0.5;exitY=1;exitDx=0;exitDy=0;" edge="1" parent="1" source="cxCpXe8AjFaBqoEo-I-R-32" target="cxCpXe8AjFaBqoEo-I-R-9">
          <mxGeometry relative="1" as="geometry">
            <mxPoint x="260" y="620" as="sourcePoint" />
            <Array as="points">
              <mxPoint x="260" y="660" />
              <mxPoint x="380" y="660" />
            </Array>
          </mxGeometry>
        </mxCell>
        <mxCell id="cxCpXe8AjFaBqoEo-I-R-7" value="ms_usuario" style="rounded=0;whiteSpace=wrap;html=1;fillColor=#dae8fc;strokeColor=#6c8ebf;" vertex="1" parent="1">
          <mxGeometry x="200" y="470" width="120" height="60" as="geometry" />
        </mxCell>
        <mxCell id="cxCpXe8AjFaBqoEo-I-R-12" style="edgeStyle=orthogonalEdgeStyle;rounded=0;orthogonalLoop=1;jettySize=auto;html=1;entryX=0.5;entryY=0;entryDx=0;entryDy=0;" edge="1" parent="1" source="cxCpXe8AjFaBqoEo-I-R-33" target="cxCpXe8AjFaBqoEo-I-R-9">
          <mxGeometry relative="1" as="geometry">
            <Array as="points">
              <mxPoint x="500" y="660" />
              <mxPoint x="380" y="660" />
            </Array>
          </mxGeometry>
        </mxCell>
        <mxCell id="cxCpXe8AjFaBqoEo-I-R-8" value="ms_publicacion" style="rounded=0;whiteSpace=wrap;html=1;fillColor=#dae8fc;strokeColor=#6c8ebf;" vertex="1" parent="1">
          <mxGeometry x="200" y="540" width="120" height="60" as="geometry" />
        </mxCell>
        <mxCell id="cxCpXe8AjFaBqoEo-I-R-20" style="edgeStyle=orthogonalEdgeStyle;rounded=0;orthogonalLoop=1;jettySize=auto;html=1;" edge="1" parent="1" source="cxCpXe8AjFaBqoEo-I-R-9" target="cxCpXe8AjFaBqoEo-I-R-16">
          <mxGeometry relative="1" as="geometry" />
        </mxCell>
        <mxCell id="cxCpXe8AjFaBqoEo-I-R-21" style="edgeStyle=orthogonalEdgeStyle;rounded=0;orthogonalLoop=1;jettySize=auto;html=1;" edge="1" parent="1" source="cxCpXe8AjFaBqoEo-I-R-9" target="cxCpXe8AjFaBqoEo-I-R-17">
          <mxGeometry relative="1" as="geometry" />
        </mxCell>
        <mxCell id="cxCpXe8AjFaBqoEo-I-R-23" style="edgeStyle=orthogonalEdgeStyle;rounded=0;orthogonalLoop=1;jettySize=auto;html=1;entryX=0.5;entryY=0;entryDx=0;entryDy=0;" edge="1" parent="1" source="cxCpXe8AjFaBqoEo-I-R-9" target="cxCpXe8AjFaBqoEo-I-R-18">
          <mxGeometry relative="1" as="geometry" />
        </mxCell>
        <mxCell id="cxCpXe8AjFaBqoEo-I-R-24" style="edgeStyle=orthogonalEdgeStyle;rounded=0;orthogonalLoop=1;jettySize=auto;html=1;" edge="1" parent="1" source="cxCpXe8AjFaBqoEo-I-R-9" target="cxCpXe8AjFaBqoEo-I-R-19">
          <mxGeometry relative="1" as="geometry" />
        </mxCell>
        <mxCell id="cxCpXe8AjFaBqoEo-I-R-9" value="" style="shape=datastore;whiteSpace=wrap;html=1;fillColor=#ffe6cc;strokeColor=#d79b00;" vertex="1" parent="1">
          <mxGeometry x="350" y="740" width="60" height="60" as="geometry" />
        </mxCell>
        <mxCell id="cxCpXe8AjFaBqoEo-I-R-10" value="X cantidad de réplicas dependiendo de la cantidad de usuarios que utilicen la aplicación" style="text;html=1;strokeColor=none;fillColor=none;align=center;verticalAlign=middle;whiteSpace=wrap;rounded=0;" vertex="1" parent="1">
          <mxGeometry x="600" y="490" width="140" height="30" as="geometry" />
        </mxCell>
        <mxCell id="cxCpXe8AjFaBqoEo-I-R-15" value="Master" style="text;html=1;align=center;verticalAlign=middle;resizable=0;points=[];autosize=1;strokeColor=none;fillColor=none;" vertex="1" parent="1">
          <mxGeometry x="395" y="720" width="60" height="30" as="geometry" />
        </mxCell>
        <mxCell id="cxCpXe8AjFaBqoEo-I-R-16" value="" style="shape=datastore;whiteSpace=wrap;html=1;fillColor=#ffe6cc;strokeColor=#d79b00;" vertex="1" parent="1">
          <mxGeometry x="215" y="840" width="60" height="60" as="geometry" />
        </mxCell>
        <mxCell id="cxCpXe8AjFaBqoEo-I-R-17" value="" style="shape=datastore;whiteSpace=wrap;html=1;fillColor=#ffe6cc;strokeColor=#d79b00;" vertex="1" parent="1">
          <mxGeometry x="305" y="840" width="60" height="60" as="geometry" />
        </mxCell>
        <mxCell id="cxCpXe8AjFaBqoEo-I-R-18" value="" style="shape=datastore;whiteSpace=wrap;html=1;fillColor=#ffe6cc;strokeColor=#d79b00;" vertex="1" parent="1">
          <mxGeometry x="395" y="840" width="60" height="60" as="geometry" />
        </mxCell>
        <mxCell id="cxCpXe8AjFaBqoEo-I-R-19" value="" style="shape=datastore;whiteSpace=wrap;html=1;fillColor=#ffe6cc;strokeColor=#d79b00;" vertex="1" parent="1">
          <mxGeometry x="485" y="840" width="60" height="60" as="geometry" />
        </mxCell>
        <mxCell id="cxCpXe8AjFaBqoEo-I-R-25" value="Replicas" style="text;html=1;align=center;verticalAlign=middle;resizable=0;points=[];autosize=1;strokeColor=none;fillColor=none;" vertex="1" parent="1">
          <mxGeometry x="345" y="920" width="70" height="30" as="geometry" />
        </mxCell>
        <mxCell id="cxCpXe8AjFaBqoEo-I-R-27" value="Base de datos" style="text;html=1;strokeColor=none;fillColor=none;align=center;verticalAlign=middle;whiteSpace=wrap;rounded=0;" vertex="1" parent="1">
          <mxGeometry x="160" y="720" width="60" height="30" as="geometry" />
        </mxCell>
        <mxCell id="cxCpXe8AjFaBqoEo-I-R-30" value="Mediante API gateway exponemos una manera segura de acceder a nuestros recursos otorgando permiso a travéz de un token a aplicaciones previamente autorizadas" style="text;html=1;strokeColor=none;fillColor=none;align=center;verticalAlign=middle;whiteSpace=wrap;rounded=0;" vertex="1" parent="1">
          <mxGeometry x="450" y="250" width="205" height="80" as="geometry" />
        </mxCell>
        <mxCell id="cxCpXe8AjFaBqoEo-I-R-34" value="ms_usuario" style="rounded=0;whiteSpace=wrap;html=1;fillColor=#dae8fc;strokeColor=#6c8ebf;" vertex="1" parent="1">
          <mxGeometry x="440" y="470" width="120" height="60" as="geometry" />
        </mxCell>
        <mxCell id="cxCpXe8AjFaBqoEo-I-R-35" value="ms_publicacion" style="rounded=0;whiteSpace=wrap;html=1;fillColor=#dae8fc;strokeColor=#6c8ebf;" vertex="1" parent="1">
          <mxGeometry x="440" y="540" width="120" height="60" as="geometry" />
        </mxCell>
        <mxCell id="cxCpXe8AjFaBqoEo-I-R-37" value="equipo 1" style="text;html=1;strokeColor=none;fillColor=none;align=center;verticalAlign=middle;whiteSpace=wrap;rounded=0;" vertex="1" parent="1">
          <mxGeometry x="230" y="440" width="60" height="30" as="geometry" />
        </mxCell>
        <mxCell id="cxCpXe8AjFaBqoEo-I-R-38" value="equipo 2" style="text;html=1;strokeColor=none;fillColor=none;align=center;verticalAlign=middle;whiteSpace=wrap;rounded=0;" vertex="1" parent="1">
          <mxGeometry x="470" y="440" width="60" height="30" as="geometry" />
        </mxCell>
      </root>
    </mxGraphModel>
  </diagram>
</mxfile>
